<?xml version="1.0" encoding="utf-8"?>
<!-- Generator: Adobe Illustrator 21.0.0, SVG Export Plug-In . SVG Version: 6.00 Build 0)  -->
<svg version="1.1" id="Layer_1" xmlns="http://www.w3.org/2000/svg" xmlns:xlink="http://www.w3.org/1999/xlink" x="0px" y="0px"
	 viewBox="0 0 612 196" style="enable-background:new 0 0 612 196;" xml:space="preserve">
<style type="text/css">
	.st0{fill:#146D00;}
	.st1{fill:none;}
</style>
<g>
	<path class="st0" d="M212.9,33.8c0-2.3-2-4.3-4.3-4.3h-12.8v113.6h17.1V33.8z"/>
	<path class="st0" d="M251.4,59.2c0,0-12.3-0.7-25.1,5.3v15.1c0,0,10.8-5.2,23.6-5.2c8.4,0,18.7,2.5,18.7,16.4h-17.2
		c-18.3,0-31.8,8.7-31.8,26.8c0,14.4,9.1,27.2,27.6,27.2c14,0,21.5-7.3,21.5-7.3v5.3h17.1V91C285.8,68.1,271.9,59.2,251.4,59.2z
		 M268.7,121.3c0,0-8.4,8.5-19,8.5s-12.6-7.5-12.6-11.9s1.2-11.9,14.8-11.9c2.1,0,16.7,0,16.7,0v15.3H268.7z"/>
	<path class="st0" d="M189.4,102.1c0-21-11.4-43-38.9-43s-38.9,22-38.9,43s11.7,42.8,38.9,42.8C177.8,144.9,189.4,123,189.4,102.1z
		 M129.1,102.1c0-17.4,8.9-27.9,21.3-27.9s21.3,10.3,21.3,27.9c0,17.4-8.5,27.7-21.2,27.7C137.8,129.8,129.1,119.7,129.1,102.1z"/>
	<rect x="430.3" y="61.2" class="st0" width="17.1" height="82"/>
	<path class="st0" d="M499.7,129.4c-6.9,0-11.9-2.5-11.9-10.3V76.5h22.4L504,61.2h-16.2V44.3c0-2.3-2-4.3-4.3-4.3h-12.8v21.2h-14.9
		v15.3h14.9v46v0.4c0,10,6.2,22.2,26,22.2c10.7,0,17.8-3.2,20.3-4.3c-0.9-2.5-4.4-11.2-5.3-13.2
		C508.2,128.6,504.1,129.4,499.7,129.4z"/>
	<path class="st0" d="M311,91c0-13.9,10.3-16.4,18.7-16.4c2.7,0,5.3,0.2,7.6,0.5c0.4-3,0.7-5.9,1.4-8.5c0.5-2.1,1.1-4.3,1.6-6.2
		c-6.9-1.4-12.1-1.1-12.1-1.1c-20.4,0-34.3,8.9-34.3,31.8V143H311V91z"/>
	<path class="st0" d="M575.6,61.2l-23.5,57.6l-22.8-57.6h-17.4l31.5,78.1l-13.7,32h14.6c1.6,0,3.2-0.9,3.7-2.3l45-107.7h-17.4V61.2z
		"/>
	<path class="st0" d="M395.8,144.9c13.2,0,24.5-4.6,26.3-5.5v-17.1c-4.6,2-13.7,6-26.1,6c-6,0-32.7-2.5-32.7-42.1
		s26.3-42.7,32.7-42.7c9.8,0,16.5,2.8,20.1,4.3c0.7-1.8,6-15.1,6-15.1c-2-0.9-12.4-5.2-26-5.2c-9.8,0-51.7,4.6-51.7,58.9
		C344.3,140.6,385,144.9,395.8,144.9z"/>
	<rect x="430.3" y="34.9" class="st0" width="17.1" height="17.2"/>
	<path class="st0" d="M71.3,77.4c-14.4-3.6-21.9-6.8-21.9-16.5C49.4,53.3,53,44,70.7,44c11,0,20.6,3.4,25.1,5.3
		c0.7-1.8,5.9-14.8,5.9-14.8s-12.3-6.8-31.6-6.8c-22.4,0-38.9,11.7-38.9,34c0,21.5,15.5,27.9,34.7,32c15.3,3.4,21.9,6.9,21.9,16.9
		c0,9.2-3.9,17.4-24.5,17.4c-19.6,0-32.4-7.5-32.4-7.5v17.1c5.5,3.7,18.5,7.5,31.6,7.5c32.5,0,43.4-17.2,43.4-34.8
		C105.8,87.8,90.2,81.6,71.3,77.4z"/>
</g>
<line class="st1" x1="430.3" y1="-141" x2="501" y2="-211.7"/>
</svg>
